<?xml version="1.0" encoding="UTF-8"?>
<!DOCTYPE svg PUBLIC "-//W3C//DTD SVG 1.1//EN" "http://www.w3.org/Graphics/SVG/1.1/DTD/svg11.dtd">
<!-- Creator: CorelDRAW X7 -->
<svg xmlns="http://www.w3.org/2000/svg" xml:space="preserve" width="21.3681mm" height="21.3681mm" version="1.1" style="shape-rendering:geometricPrecision; text-rendering:geometricPrecision; image-rendering:optimizeQuality; fill-rule:evenodd; clip-rule:evenodd"
viewBox="0 0 617 617"
 xmlns:xlink="http://www.w3.org/1999/xlink">
 <defs>
  <style type="text/css">
   <![CDATA[
    .fil0 {fill:#596A71;fill-rule:nonzero}
   ]]>
  </style>
 </defs>
 <g id="Capa_x0020_1">
  <metadata id="CorelCorpID_0Corel-Layer"/>
  <g id="_1407106759456">
   <path class="fil0" d="M124 288c-8,3 -17,-1 -21,-9 -3,-8 1,-17 9,-20l47 -19 -53 -30c-7,-5 -10,-14 -5,-21 4,-8 13,-10 21,-6l53 30 -7 -45c-1,-9 5,-17 13,-18 8,-1 16,5 18,13l10 70 84 49 0 -97 -59 -47c-6,-5 -8,-15 -2,-22 5,-7 15,-8 22,-2l39 31 0 -61c0,-9 7,-15 16,-15 8,0 15,6 15,15l0 61 36 -29c7,-5 17,-4 22,3 5,7 4,16 -2,22l-56 44 0 97 84 -49 11 -74c1,-9 9,-14 18,-13 8,1 14,9 13,17l-8 50 53 -30c8,-4 17,-2 21,5 5,8 2,17 -5,22l-53 30 43 17c8,3 12,12 8,20 -3,8 -12,12 -20,9l-66 -26 -84 49 84 48 70 -28c8,-3 17,1 20,9 4,8 0,17 -8,20l-47 19 53 30c7,5 10,14 5,21 -4,8 -13,10 -21,6l-53 -31 7 46c1,9 -5,17 -13,18 -8,1 -16,-5 -18,-13l-10 -70 -84 -49 0 97 59 47c6,5 7,15 2,22 -5,7 -15,8 -22,2l-39 -31 0 61c0,9 -7,15 -15,15 -9,0 -16,-6 -16,-15l0 -61 -36 29c-7,5 -17,4 -22,-3 -5,-7 -4,-16 2,-22l56 -44 0 -97 -84 49 -11 74c-1,9 -9,14 -18,13 -8,-1 -14,-9 -13,-18l8 -49 -53 30c-8,4 -17,2 -21,-5 -5,-8 -2,-17 5,-22l53 -30 -43 -17c-8,-3 -12,-12 -9,-20 4,-8 13,-12 21,-9l66 26 84 -49 -84 -48 -70 28z"/>
   <path class="fil0" d="M308 0c86,0 163,35 219,90l0 0 0 0c55,56 90,133 90,218 0,86 -35,163 -90,219 -56,55 -133,90 -219,90 -85,0 -162,-35 -218,-90l0 0c-55,-56 -90,-133 -90,-219 0,-85 35,-162 90,-218 56,-55 133,-90 218,-90zm197 112c-50,-50 -120,-81 -197,-81 -76,0 -145,31 -196,81 -50,51 -81,120 -81,196 0,77 31,147 81,197 50,50 120,81 196,81 77,0 146,-31 197,-81 50,-51 81,-120 81,-197 0,-76 -31,-146 -81,-196l0 0z"/>
  </g>
 </g>
</svg>
