<?xml version="1.0" encoding="UTF-8"?>
<!DOCTYPE svg PUBLIC "-//W3C//DTD SVG 1.1//EN" "http://www.w3.org/Graphics/SVG/1.1/DTD/svg11.dtd">
<!-- Creator: CorelDRAW X7 -->
<svg xmlns="http://www.w3.org/2000/svg" xml:space="preserve" width="21.3681mm" height="21.3681mm" version="1.1" style="shape-rendering:geometricPrecision; text-rendering:geometricPrecision; image-rendering:optimizeQuality; fill-rule:evenodd; clip-rule:evenodd"
viewBox="0 0 513 513"
 xmlns:xlink="http://www.w3.org/1999/xlink">
 <defs>
  <style type="text/css">
   <![CDATA[
    .fil0 {fill:#FEFEFE;fill-rule:nonzero}
   ]]>
  </style>
 </defs>
 <g id="Capa_x0020_1">
  <metadata id="CorelCorpID_0Corel-Layer"/>
  <g id="_1407126610048">
   <path class="fil0" d="M103 239c-7,3 -14,-1 -17,-7 -3,-7 1,-14 7,-17l39 -15 -44 -26c-6,-3 -8,-11 -4,-17 3,-6 11,-8 17,-5l44 26 -5 -39c-1,-7 3,-13 10,-14 8,-1 14,4 15,11l9 58 70 40 0 -80 -49 -39c-6,-5 -7,-13 -2,-18 4,-6 12,-7 18,-2l33 26 0 -51c0,-7 5,-13 13,-13 7,0 12,6 12,13l0 51 31 -24c5,-5 13,-4 18,2 4,5 3,13 -2,18l-47 37 0 80 70 -40 10 -62c1,-7 7,-12 14,-11 7,1 12,8 11,15l-6 41 44 -25c6,-4 14,-1 17,5 4,6 2,14 -4,17l-44 26 35 14c7,2 10,10 8,17 -3,6 -10,9 -17,7l-55 -22 -70 41 70 40 58 -23c7,-3 14,1 17,7 3,7 -1,14 -7,17l-39 15 44 26c6,3 8,11 4,17 -3,6 -11,9 -17,5l-44 -25 5 38c1,7 -3,13 -10,14 -7,1 -14,-3 -15,-11l-9 -58 -70 -40 0 80 49 39c6,5 7,13 2,19 -4,5 -12,6 -18,2l-33 -27 0 51c0,7 -5,13 -12,13 -8,0 -13,-6 -13,-13l0 -51 -30 24c-6,5 -14,4 -19,-2 -4,-5 -3,-13 2,-18l47 -37 0 -80 -70 40 -9 62c-1,7 -8,12 -15,11 -7,-1 -12,-8 -11,-15l6 -41 -44 25c-6,4 -14,1 -17,-5 -4,-6 -2,-14 4,-17l45 -26 -36 -14c-7,-2 -10,-10 -8,-17 3,-6 10,-9 17,-7l55 22 70 -40 -70 -41 -58 23z"/>
   <path class="fil0" d="M257 0c70,0 134,29 181,75l0 0 0 0c46,47 75,111 75,182 0,70 -29,135 -75,181 -46,46 -111,75 -181,75 -71,0 -135,-29 -182,-75l0 0c-46,-47 -75,-111 -75,-181 0,-71 29,-135 75,-182 47,-46 111,-75 182,-75zm163 93c-42,-41 -100,-67 -163,-67 -64,0 -122,26 -164,67 -41,42 -67,100 -67,164 0,63 26,121 67,163 42,41 100,67 164,67 63,0 121,-26 163,-67 41,-42 67,-100 67,-163 0,-64 -26,-122 -67,-164l0 0z"/>
  </g>
 </g>
</svg>
