<?xml version="1.0" encoding="UTF-8"?>
<!DOCTYPE svg PUBLIC "-//W3C//DTD SVG 1.1//EN" "http://www.w3.org/Graphics/SVG/1.1/DTD/svg11.dtd">
<!-- Creator: CorelDRAW X7 -->
<svg xmlns="http://www.w3.org/2000/svg" xml:space="preserve" width="25.3999mm" height="26.755mm" version="1.1" style="shape-rendering:geometricPrecision; text-rendering:geometricPrecision; image-rendering:optimizeQuality; fill-rule:evenodd; clip-rule:evenodd"
viewBox="0 0 560 590"
 xmlns:xlink="http://www.w3.org/1999/xlink">
 <defs>
  <style type="text/css">
   <![CDATA[
    .fil0 {fill:#96989A}
    .fil1 {fill:#96989A;fill-rule:nonzero}
   ]]>
  </style>
 </defs>
 <g id="Capa_x0020_1">
  <metadata id="CorelCorpID_0Corel-Layer"/>
  <g id="_1407303757296">
   <polygon class="fil0" points="290,0 354,197 560,196 393,317 457,513 290,392 274,403 274,402 233,402 187,402 187,358 187,319 187,317 187,317 187,316 186,316 20,196 227,197 "/>
   <polygon class="fil1" points="87,590 87,503 0,503 0,444 87,444 87,358 145,358 145,444 233,444 233,503 145,503 145,590 "/>
  </g>
 </g>
</svg>
