<?xml version="1.0" encoding="utf-8"?>
<!-- Generator: Adobe Illustrator 17.0.0, SVG Export Plug-In . SVG Version: 6.00 Build 0)  -->
<!DOCTYPE svg PUBLIC "-//W3C//DTD SVG 1.1//EN" "http://www.w3.org/Graphics/SVG/1.1/DTD/svg11.dtd">
<svg version="1.1" id="Capa_1" xmlns="http://www.w3.org/2000/svg" xmlns:xlink="http://www.w3.org/1999/xlink" x="0px" y="0px"
	 width="60.571px" height="60.571px" viewBox="0 0 60.571 60.571" enable-background="new 0 0 60.571 60.571" xml:space="preserve">
<g id="Capa_x0020_1">
	<g id="_1407135761248">
		<path fill="#655C6E" d="M30.345,0c8.265,0,15.822,3.424,21.371,8.855l0,0l0,0c5.431,5.549,8.855,13.106,8.855,21.489
			c0,8.265-3.424,15.94-8.855,21.371s-13.106,8.855-21.371,8.855c-8.383,0-15.94-3.424-21.489-8.855l0,0
			C3.424,46.166,0,38.61,0,30.345c0-8.383,3.424-15.94,8.855-21.489C14.405,3.424,21.961,0,30.345,0z M49.59,10.981
			C44.631,6.14,37.783,3.07,30.345,3.07c-7.557,0-14.405,3.07-19.364,7.911C6.14,15.94,3.07,22.788,3.07,30.345
			c0,7.439,3.07,14.287,7.911,19.246c4.959,4.841,11.807,7.911,19.364,7.911c7.439,0,14.287-3.07,19.246-7.911
			c4.841-4.959,7.911-11.807,7.911-19.246C57.501,22.788,54.431,15.94,49.59,10.981L49.59,10.981z"/>
		<path fill="#655C6E" d="M42.506,32.588v3.306h-4.605v-3.306h-7.675c-0.472,1.889-1.417,3.542-2.716,4.841
			c-1.771,1.771-4.369,2.952-7.084,2.952c-2.834,0-5.313-1.181-7.202-2.952c-1.771-1.771-2.952-4.369-2.952-7.084
			c0-2.834,1.181-5.313,2.952-7.202c1.889-1.771,4.369-2.952,7.202-2.952c2.716,0,5.313,1.181,7.084,2.952
			c1.299,1.299,2.243,2.952,2.716,4.841h17.829h2.243v2.361v7.202h-4.605v-4.959H42.506z M24.323,26.33
			c-1.063-0.945-2.48-1.535-3.896-1.535c-1.535,0-2.952,0.59-3.896,1.535c-1.063,1.063-1.653,2.48-1.653,4.014
			c0,1.417,0.59,2.834,1.653,3.896c0.945,0.945,2.361,1.535,3.896,1.535c1.417,0,2.834-0.59,3.896-1.535
			c0.945-1.063,1.535-2.48,1.535-3.896C25.858,28.81,25.267,27.393,24.323,26.33z"/>
	</g>
</g>
</svg>
