<?xml version="1.0" encoding="UTF-8"?>
<!DOCTYPE svg PUBLIC "-//W3C//DTD SVG 1.1//EN" "http://www.w3.org/Graphics/SVG/1.1/DTD/svg11.dtd">
<!-- Creator: CorelDRAW X7 -->
<svg xmlns="http://www.w3.org/2000/svg" xml:space="preserve" width="21.3681mm" height="21.3682mm" version="1.1" style="shape-rendering:geometricPrecision; text-rendering:geometricPrecision; image-rendering:optimizeQuality; fill-rule:evenodd; clip-rule:evenodd"
viewBox="0 0 513 513"
 xmlns:xlink="http://www.w3.org/1999/xlink">
 <defs>
  <style type="text/css">
   <![CDATA[
    .fil0 {fill:#FEFEFE;fill-rule:nonzero}
   ]]>
  </style>
 </defs>
 <g id="Capa_x0020_1">
  <metadata id="CorelCorpID_0Corel-Layer"/>
  <g id="_1407135761248">
   <path class="fil0" d="M257 0c70,0 134,29 181,75l0 0 0 0c46,47 75,111 75,182 0,70 -29,135 -75,181 -46,46 -111,75 -181,75 -71,0 -135,-29 -182,-75l0 0c-46,-47 -75,-111 -75,-181 0,-71 29,-135 75,-182 47,-46 111,-75 182,-75zm163 93c-42,-41 -100,-67 -163,-67 -64,0 -122,26 -164,67 -41,42 -67,100 -67,164 0,63 26,121 67,163 42,41 100,67 164,67 63,0 121,-26 163,-67 41,-42 67,-100 67,-163 0,-64 -26,-122 -67,-164l0 0z"/>
   <path class="fil0" d="M360 276l0 28 -39 0 0 -28 -65 0c-4,16 -12,30 -23,41 -15,15 -37,25 -60,25 -24,0 -45,-10 -61,-25 -15,-15 -25,-37 -25,-60 0,-24 10,-45 25,-61 16,-15 37,-25 61,-25 23,0 45,10 60,25 11,11 19,25 23,41l151 0 19 0 0 20 0 61 -39 0 0 -42 -27 0zm-154 -53c-9,-8 -21,-13 -33,-13 -13,0 -25,5 -33,13 -9,9 -14,21 -14,34 0,12 5,24 14,33 8,8 20,13 33,13 12,0 24,-5 33,-13 8,-9 13,-21 13,-33 0,-13 -5,-25 -13,-34z"/>
  </g>
 </g>
</svg>
