<?xml version="1.0" encoding="UTF-8"?>
<!DOCTYPE svg PUBLIC "-//W3C//DTD SVG 1.1//EN" "http://www.w3.org/Graphics/SVG/1.1/DTD/svg11.dtd">
<!-- Creator: CorelDRAW X7 -->
<svg xmlns="http://www.w3.org/2000/svg" xml:space="preserve" width="23.1404mm" height="23.1404mm" version="1.1" style="shape-rendering:geometricPrecision; text-rendering:geometricPrecision; image-rendering:optimizeQuality; fill-rule:evenodd; clip-rule:evenodd"
viewBox="0 0 596 596"
 xmlns:xlink="http://www.w3.org/1999/xlink">
 <defs>
  <style type="text/css">
   <![CDATA[
    .fil0 {fill:#FEFEFE;fill-rule:nonzero}
   ]]>
  </style>
 </defs>
 <g id="Capa_x0020_1">
  <metadata id="CorelCorpID_0Corel-Layer"/>
  <g id="_1407256451904">
   <path class="fil0" d="M298 110c52,0 99,21 133,55 34,34 55,81 55,133 0,52 -21,99 -55,133 -34,34 -81,55 -133,55 -52,0 -99,-21 -133,-55 -34,-34 -55,-81 -55,-133 0,-52 21,-99 55,-133 34,-34 81,-55 133,-55zm112 76c-29,-28 -68,-46 -112,-46 -44,0 -83,18 -112,46 -28,29 -46,68 -46,112 0,44 18,83 46,112 29,28 68,46 112,46 44,0 83,-18 112,-46 28,-29 46,-68 46,-112 0,-44 -18,-83 -46,-112z"/>
   <path class="fil0" d="M114 288c53,-61 116,-34 181,-7 56,24 115,50 166,6l20 22c-65,56 -133,28 -198,0 -55,-24 -107,-46 -146,-1l-23 -20z"/>
   <path class="fil0" d="M298 0c82,0 157,33 211,87l0 0 0 0c54,54 87,129 87,211 0,82 -33,157 -87,211 -54,54 -129,87 -211,87 -82,0 -157,-33 -211,-87l0 0c-54,-54 -87,-129 -87,-211 0,-82 33,-157 87,-211 54,-54 129,-87 211,-87zm189 108c-48,-48 -115,-78 -189,-78 -74,0 -141,30 -189,79 -49,48 -79,115 -79,189 0,74 30,141 78,190 49,48 116,78 190,78 74,0 141,-30 189,-78 49,-49 79,-116 79,-190 0,-74 -30,-141 -78,-189l-1 -1z"/>
  </g>
 </g>
</svg>
