<?xml version="1.0" encoding="UTF-8"?>
<!DOCTYPE svg PUBLIC "-//W3C//DTD SVG 1.1//EN" "http://www.w3.org/Graphics/SVG/1.1/DTD/svg11.dtd">
<!-- Creator: CorelDRAW X7 -->
<svg xmlns="http://www.w3.org/2000/svg" xml:space="preserve" width="23.1404mm" height="23.1404mm" version="1.1" style="shape-rendering:geometricPrecision; text-rendering:geometricPrecision; image-rendering:optimizeQuality; fill-rule:evenodd; clip-rule:evenodd"
viewBox="0 0 732 732"
 xmlns:xlink="http://www.w3.org/1999/xlink">
 <defs>
  <style type="text/css">
   <![CDATA[
    .fil0 {fill:#596A71;fill-rule:nonzero}
   ]]>
  </style>
 </defs>
 <g id="Capa_x0020_1">
  <metadata id="CorelCorpID_0Corel-Layer"/>
  <g id="_1407189203008">
   <path class="fil0" d="M366 135c64,0 121,26 163,68 42,42 68,99 68,163 0,64 -26,121 -68,163 -42,42 -99,68 -163,68 -64,0 -121,-26 -163,-68 -42,-42 -68,-99 -68,-163 0,-64 26,-121 68,-163 42,-42 99,-68 163,-68zm137 94c-35,-35 -84,-57 -137,-57 -53,0 -102,22 -137,57 -35,35 -57,84 -57,137 0,53 22,102 57,137 35,35 84,57 137,57 53,0 102,-22 137,-57 35,-35 57,-84 57,-137 0,-53 -22,-102 -57,-137z"/>
   <path class="fil0" d="M140 354c66,-75 142,-43 222,-8 70,29 142,60 204,6l24 28c-79,69 -162,33 -242,-1 -68,-28 -132,-56 -180,-1l-28 -24z"/>
   <path class="fil0" d="M366 0c101,0 192,41 259,107l0 0 0 0c66,67 107,158 107,259 0,101 -41,193 -107,259 -66,66 -158,107 -259,107 -101,0 -193,-41 -259,-107l0 0c-66,-66 -107,-158 -107,-259 0,-101 41,-193 107,-259 66,-66 158,-107 259,-107zm233 133c-60,-59 -142,-96 -233,-96 -91,0 -173,37 -233,96 -59,60 -96,142 -96,233 0,91 37,173 96,233 60,59 142,96 233,96 91,0 173,-37 233,-96 59,-60 96,-142 96,-233 0,-91 -37,-173 -96,-233l0 0z"/>
  </g>
 </g>
</svg>
