<?xml version="1.0" encoding="utf-8"?>
<!-- Generator: Adobe Illustrator 17.0.0, SVG Export Plug-In . SVG Version: 6.00 Build 0)  -->
<!DOCTYPE svg PUBLIC "-//W3C//DTD SVG 1.1//EN" "http://www.w3.org/Graphics/SVG/1.1/DTD/svg11.dtd">
<svg version="1.1" id="Capa_1" xmlns="http://www.w3.org/2000/svg" xmlns:xlink="http://www.w3.org/1999/xlink" x="0px" y="0px"
	 width="68.116px" height="68.116px" viewBox="0 0 68.116 68.116" enable-background="new 0 0 68.116 68.116" xml:space="preserve">
<g id="Capa_x0020_1">
	<circle fill="#BDBFC1" cx="34.044" cy="34.044" r="34.044"/>
	<path fill="#FEFEFF" d="M17.198,48.944h33.125c-0.054-1.677,0.352-5.165-0.433-6.382c-2.217-3.407-12.25-4.164-16.089-4.164
		c-3.813,0-14.115,0.838-16.17,4.083C16.819,43.752,17.225,47.159,17.198,48.944z"/>
	<path fill="#FEFEFF" d="M33.287,19.226c-3.921,0.487-7.247,4.164-6.652,8.68c0.514,3.948,4.164,7.355,8.707,6.706
		c3.894-0.595,7.139-4.11,6.598-8.707C41.454,21.93,37.803,18.658,33.287,19.226z"/>
</g>
</svg>
