<?xml version="1.0" encoding="UTF-8"?>
<!DOCTYPE svg PUBLIC "-//W3C//DTD SVG 1.1//EN" "http://www.w3.org/Graphics/SVG/1.1/DTD/svg11.dtd">
<!-- Creator: CorelDRAW X7 -->
<svg xmlns="http://www.w3.org/2000/svg" xml:space="preserve" width="51.84mm" height="13.749mm" version="1.1" style="shape-rendering:geometricPrecision; text-rendering:geometricPrecision; image-rendering:optimizeQuality; fill-rule:evenodd; clip-rule:evenodd"
viewBox="0 0 2303 611"
 xmlns:xlink="http://www.w3.org/1999/xlink">
 <defs>
  <style type="text/css">
   <![CDATA[
    .fil2 {fill:#0077A2}
    .fil0 {fill:#0077A2;fill-rule:nonzero}
    .fil1 {fill:#BDBFC1;fill-rule:nonzero}
   ]]>
  </style>
 </defs>
 <g id="Capa_x0020_1">
  <metadata id="CorelCorpID_0Corel-Layer"/>
  <g id="_2905033489280">
   <path class="fil0" d="M847 121c-90,6 -152,65 -152,152 0,36 14,71 37,96 29,31 69,46 119,46 92,0 159,-69 154,-158 -4,-82 -72,-140 -158,-136l0 0zm0 79c33,0 60,30 60,71 0,44 -20,67 -52,67 -35,0 -60,-33 -60,-75 0,-36 21,-63 52,-63z"/>
   <path class="fil0" d="M1141 121c-90,6 -152,65 -152,152 0,36 14,71 37,96 28,31 69,46 119,46 92,0 159,-69 153,-158 -3,-82 -71,-140 -157,-136l0 0zm0 79c33,0 59,30 59,71 0,44 -19,67 -51,67 -35,0 -60,-33 -60,-75 0,-36 21,-63 52,-63z"/>
   <path class="fil0" d="M1346 8c-17,-6 -34,-8 -53,-8l0 405 98 0 0 -71 21 -27 69 98 115 0 -115 -151 98 -108c-17,0 -35,-2 -52,-4 -15,-4 -33,-9 -48,-17l-86 98 0 -183c-14,-13 -27,-25 -47,-32l0 0z"/>
   <path class="fil1" d="M1604 12c-29,9 -41,38 -31,67 12,29 40,40 69,29 16,-6 27,-18 31,-33 -4,2 -8,6 -12,8 -26,9 -51,-2 -63,-29 -6,-16 -4,-31 6,-42z"/>
   <path class="fil0" d="M1573 146l0 259 100 0 0 -271c-8,2 -14,2 -21,4 -16,4 -31,6 -50,6 -10,2 -19,2 -29,2l0 0z"/>
   <path class="fil0" d="M1659 136c6,12 12,23 14,27 4,16 6,35 6,75l0 167 98 0 0 -175c15,-17 30,-24 46,-24 29,0 40,13 40,49l0 150 98 0 0 -178c0,-68 -35,-106 -94,-106 -38,0 -73,17 -96,48 -2,-23 -10,-35 -27,-48 -6,2 -13,2 -19,2 -21,6 -44,10 -66,13l0 0z"/>
   <path class="fil0" d="M401 401c56,8 85,10 131,10 37,0 73,-6 96,-11 54,-18 85,-54 85,-104 0,-48 -27,-83 -75,-96 38,-21 55,-44 55,-83 0,-67 -57,-105 -163,-105 -40,0 -67,1 -129,9l0 380 0 0zm102 -316c10,-2 23,-2 27,-2 39,0 60,17 60,50 0,19 -20,44 -37,44l-50 0 0 -92zm0 155l31 0c46,0 71,17 71,52 0,29 -23,48 -61,48l-10 0c-6,0 -13,0 -21,0 -2,-2 -6,-2 -10,-2l0 -98 0 0z"/>
   <path class="fil0" d="M2080 121c-29,0 -65,12 -86,27 -31,23 -46,56 -46,96 0,48 30,88 82,104 -23,15 -32,28 -32,50 0,5 1,7 3,13 -42,12 -73,48 -73,88 0,66 68,112 164,112 94,0 163,-52 163,-121 0,-27 -6,-44 -23,-62 -16,-15 -37,-23 -98,-38 -37,-10 -44,-14 -46,-19 0,-6 2,-10 7,-14 39,0 60,-6 87,-19 31,-19 50,-54 50,-94 0,-15 -2,-25 -8,-37 39,-1 62,-5 79,-13 -79,-25 -131,-75 -223,-73l0 0zm12 60c28,0 48,25 48,63 0,35 -18,54 -45,54 -28,0 -48,-27 -48,-66 0,-30 18,-51 45,-51zm0 286c46,11 57,21 57,40 0,25 -23,42 -57,42 -39,0 -66,-21 -66,-50 0,-15 8,-28 27,-42l39 10 0 0z"/>
   <path class="fil2" d="M302 238l-52 54 -100 100 -27 27 -123 -121 127 -129 63 -63 33 0c2,9 2,17 4,27 2,7 3,15 7,24 -2,2 -2,4 -2,8 0,6 2,12 6,16 4,3 10,5 16,5 5,0 11,-2 15,-5 4,-4 8,-10 8,-16 0,-6 -4,-11 -8,-15 -2,-2 -4,-4 -6,-6 -2,-6 -4,-11 -6,-17 0,-8 -2,-16 -2,-21l58 0 0 123 -11 9 0 0zm-135 0l-15 16 7 7c4,4 12,4 16,0 6,-6 6,-13 -2,-19l-6 -4 0 0zm-27 27l-17 17 2 2 4 4 2 2c5,6 13,6 19,2 6,-6 4,-14 -4,-23l-6 -4 0 0zm129 -115l0 0zm-85 80c20,18 23,35 12,47 -8,5 -14,7 -25,3 6,12 6,22 -4,31 -8,8 -21,10 -33,4 -5,-4 -11,-10 -19,-15 -7,-8 -11,-14 -21,-25l67 -66c12,10 18,14 23,21l0 0z"/>
   <polygon class="fil2" points="284,277 232,392 225,409 173,386 259,302 "/>
   <polygon class="fil2" points="300,279 300,378 254,378 "/>
   <path class="fil1" d="M248 169c2,4 6,4 9,4 4,-2 6,-6 4,-10 -11,-25 -15,-48 -15,-71 0,-21 6,-40 15,-54 8,-9 18,-15 27,-19 10,-2 19,-2 29,2 10,2 17,8 25,17 8,8 11,20 11,33 0,17 -5,37 -15,52 -4,6 -8,11 -13,17l0 19c9,-7 19,-17 25,-28 11,-20 17,-41 17,-60 0,-17 -6,-31 -16,-42 -7,-10 -17,-17 -30,-21 -12,-4 -25,-4 -37,-2 -11,4 -25,11 -32,23 -14,15 -20,38 -20,63 0,23 4,50 16,77l0 0z"/>
   <polygon class="fil1" points="440,524 440,490 416,490 416,578 440,578 440,542 473,542 473,578 496,578 496,490 473,490 473,524 "/>
   <path class="fil1" d="M757 578l26 0 -38 -88 -21 0 -37 88 22 0 8 -19 33 0 7 19zm-13 -34l-21 0 11 -27 10 27z"/>
   <polygon class="fil1" points="994,543 972,488 947,492 984,578 1002,578 1039,492 1017,488 "/>
   <path class="fil1" d="M1274 578l25 0 -37 -88 -21 0 -38 88 23 0 8 -19 32 0 8 19zm-13 -34l-22 0 11 -27 11 27z"/>
   <polygon class="fil1" points="1490,492 1490,578 1512,578 1512,530 1558,580 1573,576 1573,490 1550,490 1551,538 1505,488 "/>
   <path class="fil1" d="M1833 578l25 0 -37 -88 -21 0 -38 88 23 0 8 -19 32 0 8 19zm-13 -34l-22 0 11 -27 11 27z"/>
   <path class="fil1" d="M1623 6c-31,0 -52,23 -52,54 0,30 21,51 52,51 31,0 52,-21 52,-51 0,-31 -21,-54 -52,-54z"/>
  </g>
 </g>
</svg>
