<?xml version="1.0" encoding="UTF-8"?>
<!DOCTYPE svg PUBLIC "-//W3C//DTD SVG 1.1//EN" "http://www.w3.org/Graphics/SVG/1.1/DTD/svg11.dtd">
<!-- Creator: CorelDRAW X7 -->
<svg xmlns="http://www.w3.org/2000/svg" xml:space="preserve" width="10.1821in" height="2.70174in" version="1.1" style="shape-rendering:geometricPrecision; text-rendering:geometricPrecision; image-rendering:optimizeQuality; fill-rule:evenodd; clip-rule:evenodd"
viewBox="0 0 10094 2678"
 xmlns:xlink="http://www.w3.org/1999/xlink">
 <defs>
  <style type="text/css">
   <![CDATA[
    .fil2 {fill:#1DAEFF}
    .fil1 {fill:#1DAEFF;fill-rule:nonzero}
    .fil3 {fill:#F7BC56;fill-rule:nonzero}
    .fil0 {fill:#F7BC56;fill-rule:nonzero}
   ]]>
  </style>
 </defs>
 <g id="Capa_x0020_1">
  <metadata id="CorelCorpID_0Corel-Layer"/>
  <path class="fil0" d="M7116 38c-135,0 -230,96 -230,229 0,134 95,230 230,230 135,0 228,-93 228,-230 0,-133 -96,-229 -228,-229z"/>
  <path class="fil1" d="M3712 534c-348,18 -594,223 -649,526 -55,-88 -145,-153 -267,-187 171,-91 241,-194 241,-358 0,-298 -251,-461 -710,-461 -176,0 -298,8 -565,39l0 1664c244,34 371,41 568,41 166,0 326,-18 428,-49 178,-53 297,-159 344,-301 27,64 64,123 109,172 122,129 299,197 521,197 307,0 549,-172 639,-424 27,86 71,164 129,227 122,129 298,197 521,197 319,0 569,-186 648,-455l0 416 428 0 0 -311 94 -117 300 428 410 0 96 0 337 0 0 -1056c20,62 24,145 24,322l0 734 433 0 0 -767c70,-78 134,-112 204,-112 120,0 171,65 171,218l0 661 433 0 0 -477c62,104 168,184 305,224 -105,64 -149,129 -143,219 0,20 6,35 17,61 -190,47 -321,205 -321,389 0,286 292,484 712,484 415,0 722,-225 722,-528 0,-117 -30,-196 -103,-269 -73,-73 -160,-108 -429,-175 -160,-38 -195,-52 -201,-85 -3,-17 6,-35 29,-58 172,0 266,-20 377,-85 140,-84 221,-230 221,-408 0,-65 -8,-111 -35,-163 168,-4 275,-24 344,-59 -345,-106 -566,-324 -977,-321 -126,0 -283,52 -380,125 -68,52 -120,115 -154,189 -45,-196 -186,-307 -398,-307 -169,0 -319,75 -420,210 -11,-102 -44,-159 -117,-210 -30,1 -58,4 -85,7 -95,21 -188,41 -280,59l0 0 -1 0 -4 0 0 0c-10,2 -21,4 -32,6 -67,15 -137,26 -219,29 -35,3 -70,5 -104,5l0 0 -2 0 -2 0 0 0 -2 0 -1 0 -1 0 -2 0 -6 0 -2 0 0 0 -2 0 -1 0 -1 0c-68,0 -136,-6 -203,-20 -74,-15 -145,-38 -212,-73l-384 427 0 -797c-57,-62 -118,-111 -198,-142 -74,-28 -153,-37 -235,-35l0 979c-81,-282 -343,-463 -669,-445 -309,16 -538,180 -624,430 -86,-273 -344,-448 -664,-430zm0 339c142,0 259,140 259,314 0,192 -80,298 -226,298 -147,0 -261,-145 -261,-329 0,-166 96,-283 228,-283zm1288 0c143,0 260,140 260,314 0,192 -81,298 -226,298 -148,0 -262,-145 -262,-329 0,-166 96,-283 228,-283zm1901 778l-407 -542 407 -445 0 987zm-4698 -602l140 0c202,0 313,83 313,231 0,130 -101,210 -269,210l-44 0c-31,0 -62,0 -91,-3 -10,-2 -28,-2 -49,-5l0 -433zm0 -679c46,-5 101,-8 124,-8 166,0 262,78 262,216 0,88 -91,194 -166,194l-220 0 0 -402zm6969 1675c199,52 251,90 251,178 0,111 -102,187 -257,187 -166,0 -286,-91 -286,-216 0,-73 35,-129 126,-193l166 44zm-6 -1256c129,0 214,114 214,284 0,146 -73,233 -190,233 -129,0 -216,-117 -216,-286 0,-137 76,-231 192,-231z"/>
  <g id="_699654467216">
   <path class="fil2" d="M1324 1048l-232 232 -436 436 -121 121 -535 -536 557 -557 280 -280 144 0c2,38 7,77 16,116 7,35 17,72 30,108 -5,10 -7,22 -7,34 0,26 11,49 28,67 17,17 41,27 67,27 26,0 50,-10 67,-27 17,-17 27,-41 27,-67 0,-26 -10,-50 -27,-67 -8,-8 -18,-14 -28,-19 -9,-28 -17,-56 -23,-84 -6,-30 -10,-59 -13,-88l254 0 0 535 -48 49zm-589 -8l-71 70 39 39c13,13 47,10 63,-5 24,-24 22,-56 -8,-84l-23 -20zm-119 119l-75 75 7 10 16 16 7 8c30,29 61,33 84,10 26,-26 21,-60 -15,-95l-24 -24zm566 -504l0 0zm-371 352c80,80 96,152 44,204 -29,28 -59,34 -105,20 27,48 21,95 -16,132 -38,38 -90,43 -143,14 -23,-12 -55,-37 -83,-66 -35,-34 -56,-57 -92,-106l290 -290c52,41 75,61 105,92z"/>
   <polygon class="fil2" points="1246,1212 1020,1718 985,1796 762,1697 1135,1323 "/>
   <polygon class="fil2" points="1311,1217 1311,1657 1114,1657 "/>
   <path class="fil3" d="M1087 739c7,16 25,23 41,16 15,-6 22,-24 16,-40 -47,-107 -67,-213 -66,-308 2,-98 27,-183 71,-242 31,-41 71,-67 114,-78 42,-11 86,-9 127,4 42,14 79,39 108,74 31,38 51,89 52,150 1,74 -22,154 -66,226 -17,26 -37,52 -59,75l0 82c44,-36 82,-79 111,-125 50,-81 77,-174 75,-259 -2,-76 -27,-139 -66,-187 -36,-45 -84,-77 -136,-94 -52,-17 -108,-19 -162,-5 -55,15 -107,48 -147,101 -52,69 -81,166 -83,277 -1,103 21,218 70,333z"/>
  </g>
  <path class="fil3" d="M2134 2178c-40,-28 -78,-39 -127,-39 -109,0 -193,83 -193,190 0,112 74,192 183,197 50,2 95,-11 138,-41l-42 -77c-24,19 -47,26 -77,26 -54,0 -96,-45 -96,-103 0,-59 39,-100 92,-100 26,0 46,6 71,24l51 -77zm399 -29l0 215c0,47 6,79 20,102 25,38 76,60 145,60 51,0 100,-15 127,-38 30,-26 43,-61 43,-119l0 -220 -99 0 0 215c0,24 -4,42 -10,52 -10,17 -30,27 -55,27 -22,0 -40,-5 -52,-16 -14,-13 -20,-30 -20,-63l0 -215 -99 0zm752 362c52,7 80,9 122,9 36,0 70,-4 92,-11 51,-15 79,-50 79,-97 0,-46 -25,-78 -71,-91 37,-20 52,-42 52,-77 0,-65 -54,-100 -153,-100 -38,0 -64,2 -121,9l0 358zm95 -299c10,-1 21,-1 26,-1 36,0 57,16 57,46 0,19 -20,42 -36,42l-47 0 0 -87zm0 147l30 0c43,0 67,17 67,49 0,28 -21,46 -58,46l-9 0c-7,0 -14,0 -20,-1 -2,-1 -6,-1 -10,-1l0 -93zm863 156l105 0 -155 -366 -86 0 -158 366 94 0 33 -80 135 0 32 80zm-54 -140l-90 0 46 -114 44 114zm1009 -144l104 0 0 -82 -308 0 0 82 104 0 0 284 100 0 0 -284zm663 -92c-110,0 -194,85 -194,195 0,111 82,192 194,192 118,0 197,-80 197,-197 0,-48 -19,-96 -51,-130 -38,-40 -85,-60 -146,-60zm-4 87c54,0 94,47 94,111 0,65 -34,104 -88,101 -23,-1 -43,-11 -59,-27 -17,-20 -30,-53 -30,-83 0,-63 32,-102 83,-102zm608 -77l0 215c0,47 7,79 21,102 24,38 75,60 145,60 50,0 99,-15 126,-38 31,-26 44,-61 44,-119l0 -220 -100 0 0 215c0,24 -3,42 -9,52 -11,17 -31,27 -56,27 -22,0 -39,-5 -52,-16 -14,-13 -20,-30 -20,-63l0 -215 -99 0zm752 366l99 0 0 -125 41 0 71 125 114 0 -99 -156c40,-22 60,-52 60,-95 0,-79 -59,-120 -172,-120 -22,0 -60,2 -91,5 -5,0 -13,1 -23,2l0 364zm99 -294c17,-1 19,-1 30,-1 37,0 60,20 60,51 0,27 -19,51 -41,51l-49 0 0 -101zm864 -49c-49,-25 -76,-33 -121,-33 -25,0 -56,9 -77,21 -32,20 -50,52 -50,89 0,45 19,74 65,100 7,3 21,10 40,20 28,15 38,25 38,41 0,23 -19,38 -46,36 -34,-3 -66,-19 -101,-49l-10 88c45,28 86,41 133,41 82,0 139,-48 139,-117 0,-29 -13,-58 -33,-76 -15,-12 -38,-26 -73,-44 -33,-17 -42,-26 -41,-43 2,-17 17,-29 37,-29 23,0 44,8 78,31l22 -76z"/>
 </g>
</svg>
