<?xml version="1.0" encoding="UTF-8"?>
<!DOCTYPE svg PUBLIC "-//W3C//DTD SVG 1.1//EN" "http://www.w3.org/Graphics/SVG/1.1/DTD/svg11.dtd">
<!-- Creator: CorelDRAW X7 -->
<svg xmlns="http://www.w3.org/2000/svg" xml:space="preserve" width="21.3681mm" height="21.3682mm" version="1.1" style="shape-rendering:geometricPrecision; text-rendering:geometricPrecision; image-rendering:optimizeQuality; fill-rule:evenodd; clip-rule:evenodd"
viewBox="0 0 617 617"
 xmlns:xlink="http://www.w3.org/1999/xlink">
 <defs>
  <style type="text/css">
   <![CDATA[
    .fil0 {fill:#596A71}
    .fil1 {fill:#596A71;fill-rule:nonzero}
   ]]>
  </style>
 </defs>
 <g id="Capa_x0020_1">
  <metadata id="CorelCorpID_0Corel-Layer"/>
  <g id="_1407084960080">
   <g>
    <path class="fil0" d="M67 257l188 0 -188 0zm405 0l78 0 -78 0zm-38 265c-13,-4 -25,-10 -38,-17 -21,-16 -33,-17 -54,-5 -11,10 -32,18 -47,21 -46,13 -77,1 -117,-24 -9,-6 -21,-8 -33,-3 32,27 70,47 113,56 9,0 19,0 27,-1 24,-4 52,-13 71,-30 7,-4 12,-5 19,-1 10,7 20,13 30,18 10,-4 20,-9 29,-14zm121 -215l0 1c0,9 0,16 -1,24l-82 0 0 -25 83 0zm-19 97c-4,11 -10,21 -16,31 -5,3 -10,7 -16,12 -31,16 -51,12 -79,-8 -2,0 -4,-2 -6,-3 -12,-7 -25,-11 -39,-14 -31,-2 -53,4 -78,20 -30,25 -58,16 -86,-4 -38,-22 -82,-22 -117,2 -4,-7 -8,-14 -11,-21 20,-13 45,-21 70,-21 31,0 60,11 82,28 15,11 27,11 44,1 2,-1 3,-2 5,-3l0 -290c0,-7 5,-13 12,-13 7,0 13,6 13,13l0 111 102 0 0 -111c0,-7 6,-13 13,-13 7,0 12,6 12,13l0 288c2,1 4,3 6,4 16,11 28,11 45,1 12,-10 28,-18 44,-23zm-47 74c-9,9 -18,17 -28,25 -9,-1 -19,-3 -27,-5l-12 -6c-26,-13 -39,-29 -69,-23 -11,3 -20,8 -29,16 -33,18 -61,25 -97,13 -18,-8 -33,-20 -50,-27 -15,-5 -29,-3 -43,2l-6 4c-6,-6 -11,-12 -16,-18l3 -2c34,-19 69,-14 99,9 35,19 62,19 96,0 30,-25 67,-27 100,-9 28,21 51,27 79,21zm-426 -146c-1,-8 -2,-15 -2,-24l1 -1 193 0 0 25 -192 0zm353 76c-6,-2 -11,-4 -17,-6l17 0 0 6zm-83 -6c-7,2 -13,4 -19,7l0 -7 19 0zm-19 -132l0 41 102 0 0 -41 -102 0zm0 66l0 41 102 0 0 -41 -102 0z"/>
   </g>
   <path class="fil1" d="M308 0c86,0 163,35 219,90l0 0 0 0c55,56 90,133 90,218 0,86 -35,163 -90,219 -56,55 -133,90 -219,90 -85,0 -162,-35 -218,-90l0 0c-55,-56 -90,-133 -90,-219 0,-85 35,-162 90,-218 56,-55 133,-90 218,-90zm197 112c-50,-50 -120,-81 -197,-81 -76,0 -145,31 -196,81 -50,51 -81,120 -81,196 0,77 31,147 81,197 50,50 120,81 196,81 77,0 146,-31 197,-81 50,-51 81,-120 81,-197 0,-76 -31,-146 -81,-196l0 0z"/>
  </g>
 </g>
</svg>
