<?xml version="1.0" encoding="UTF-8"?>
<!DOCTYPE svg PUBLIC "-//W3C//DTD SVG 1.1//EN" "http://www.w3.org/Graphics/SVG/1.1/DTD/svg11.dtd">
<!-- Creator: CorelDRAW X7 -->
<svg xmlns="http://www.w3.org/2000/svg" xml:space="preserve" width="21.3681mm" height="21.3682mm" version="1.1" style="shape-rendering:geometricPrecision; text-rendering:geometricPrecision; image-rendering:optimizeQuality; fill-rule:evenodd; clip-rule:evenodd"
viewBox="0 0 513 513"
 xmlns:xlink="http://www.w3.org/1999/xlink">
 <defs>
  <style type="text/css">
   <![CDATA[
    .fil0 {fill:#FEFEFE}
    .fil1 {fill:#FEFEFE;fill-rule:nonzero}
   ]]>
  </style>
 </defs>
 <g id="Capa_x0020_1">
  <metadata id="CorelCorpID_0Corel-Layer"/>
  <g id="_1407206577936">
   <g>
    <path class="fil0" d="M56 214l156 0 -156 0zm336 0l66 0 -66 0zm-31 220c-11,-3 -21,-8 -32,-14 -17,-13 -27,-14 -44,-5 -10,9 -27,15 -40,19 -38,10 -64,0 -97,-21 -7,-5 -18,-6 -27,-2 26,23 58,39 93,47 8,0 16,-1 23,-2 20,-3 43,-11 59,-25 6,-2 10,-3 16,0 8,6 17,11 25,15 8,-4 16,-8 24,-12zm101 -178l0 1c0,6 0,13 -1,19l-69 0 0 -20 70 0zm-16 80c-4,9 -8,18 -13,26 -5,3 -9,6 -14,9 -26,14 -42,11 -65,-6 -2,0 -4,-1 -5,-3 -11,-5 -21,-9 -33,-11 -25,-2 -44,3 -65,17 -24,20 -48,13 -72,-4 -31,-18 -67,-18 -97,2 -3,-6 -6,-12 -9,-17 17,-11 37,-18 59,-18 25,0 49,9 67,23 13,9 23,9 37,1 2,-1 3,-2 4,-3l0 -241c0,-5 5,-10 10,-10 6,0 11,5 11,10l0 93 85 0 0 -93c0,-5 5,-10 10,-10 6,0 11,5 11,10l0 240c2,1 3,2 5,3 13,9 23,9 37,1 11,-8 23,-15 37,-19zm-40 61c-7,8 -15,15 -23,21 -8,0 -15,-2 -22,-4l-10 -5c-21,-11 -32,-24 -57,-19 -9,3 -17,7 -25,13 -27,15 -50,21 -81,11 -14,-6 -27,-16 -41,-22 -13,-4 -24,-3 -35,2l-6 3c-4,-5 -8,-10 -13,-16l2 -1c29,-16 58,-12 83,7 29,16 51,16 80,0 25,-20 56,-22 83,-7 23,17 43,23 65,17zm-354 -121c-1,-6 -1,-13 -1,-19l0 -1 161 0 0 20 -160 0zm294 63c-5,-1 -10,-3 -15,-4l15 0 0 4zm-69 -4c-6,1 -11,3 -16,5l0 -5 16 0zm-16 -111l0 35 85 0 0 -35 -85 0zm0 55l0 35 85 0 0 -35 -85 0z"/>
   </g>
   <path class="fil1" d="M257 0c70,0 134,29 181,75l0 0 0 0c46,47 75,111 75,182 0,70 -29,135 -75,181 -46,46 -111,75 -181,75 -71,0 -135,-29 -182,-75l0 0c-46,-47 -75,-111 -75,-181 0,-71 29,-135 75,-182 47,-46 111,-75 182,-75zm163 93c-42,-41 -100,-67 -163,-67 -64,0 -122,26 -164,67 -41,42 -67,100 -67,164 0,63 26,121 67,163 42,41 100,67 164,67 63,0 121,-26 163,-67 41,-42 67,-100 67,-163 0,-64 -26,-122 -67,-164l0 0z"/>
  </g>
 </g>
</svg>
