<?xml version="1.0" encoding="UTF-8"?>
<!DOCTYPE svg PUBLIC "-//W3C//DTD SVG 1.1//EN" "http://www.w3.org/Graphics/SVG/1.1/DTD/svg11.dtd">
<!-- Creator: CorelDRAW X7 -->
<svg xmlns="http://www.w3.org/2000/svg" xml:space="preserve" width="18.5513mm" height="18.2587mm" version="1.1" style="shape-rendering:geometricPrecision; text-rendering:geometricPrecision; image-rendering:optimizeQuality; fill-rule:evenodd; clip-rule:evenodd"
viewBox="0 0 200 197"
 xmlns:xlink="http://www.w3.org/1999/xlink">
 <defs>
  <style type="text/css">
   <![CDATA[
    .fil0 {fill:#EF6534;fill-rule:nonzero}
   ]]>
  </style>
 </defs>
 <g id="Capa_x0020_1">
  <metadata id="CorelCorpID_0Corel-Layer"/>
  <path class="fil0" d="M50 95c-2,-1 -4,-1 -5,-1 -11,-3 -20,-6 -28,-11 -3,-1 -6,-3 -9,-6 -3,-2 -6,-4 -8,-7l4 -3c2,2 4,4 7,6 3,2 6,4 9,6 7,4 16,7 26,9 1,1 3,1 4,1l0 0c8,2 17,3 26,3 11,0 21,-2 30,-4l0 0 1 0 0 0c10,-2 19,-5 27,-10 11,-6 19,-14 23,-23 25,7 41,21 41,37 0,22 -33,40 -74,40 -39,0 -71,-16 -74,-37zm100 51c-3,21 -35,37 -74,37 -41,0 -74,-18 -74,-40 0,-16 17,-30 41,-36 4,9 13,17 24,23 15,8 35,13 57,13 9,0 17,-1 25,-2l0 0 0 0c2,-1 4,-1 6,-2 9,-2 18,-5 25,-9l0 0c3,-2 6,-4 9,-6 2,-2 5,-4 7,-6l4 4c-3,2 -5,4 -8,6 -3,3 -6,5 -9,7l0 0c-8,4 -17,7 -27,10 -2,0 -4,0 -6,1zm2 24c-3,2 -5,5 -8,7 -3,2 -6,4 -9,6l0 0c-8,4 -17,8 -27,10 -10,2 -21,4 -32,4 -11,0 -22,-2 -31,-4 -11,-2 -20,-6 -28,-10 -3,-2 -6,-4 -9,-6 -3,-2 -6,-5 -8,-7l4 -4c2,3 4,5 7,7 3,2 6,4 9,5 7,4 16,8 26,10 9,2 19,3 30,3 11,0 21,-1 30,-3 10,-2 19,-6 26,-10l0 0c3,-1 6,-3 9,-5 2,-2 5,-4 7,-7l4 4zm-76 -170c41,0 74,18 74,40 0,23 -33,41 -74,41 -41,0 -74,-18 -74,-41 0,-22 33,-40 74,-40z"/>
 </g>
</svg>
