<?xml version="1.0" encoding="UTF-8"?>
<!DOCTYPE svg PUBLIC "-//W3C//DTD SVG 1.1//EN" "http://www.w3.org/Graphics/SVG/1.1/DTD/svg11.dtd">
<!-- Creator: CorelDRAW X7 -->
<svg xmlns="http://www.w3.org/2000/svg" xml:space="preserve" width="21.3681mm" height="21.3681mm" version="1.1" style="shape-rendering:geometricPrecision; text-rendering:geometricPrecision; image-rendering:optimizeQuality; fill-rule:evenodd; clip-rule:evenodd"
viewBox="0 0 513 513"
 xmlns:xlink="http://www.w3.org/1999/xlink">
 <defs>
  <style type="text/css">
   <![CDATA[
    .fil1 {fill:#FEFEFE}
    .fil0 {fill:#FEFEFE;fill-rule:nonzero}
   ]]>
  </style>
 </defs>
 <g id="Capa_x0020_1">
  <metadata id="CorelCorpID_0Corel-Layer"/>
  <g id="_1407149993184">
   <path class="fil0" d="M257 0c70,0 134,29 181,75l0 0 0 0c46,47 75,111 75,182 0,70 -29,135 -75,181 -46,46 -111,75 -181,75 -71,0 -135,-29 -182,-75l0 0c-46,-47 -75,-111 -75,-181 0,-71 29,-135 75,-182 47,-46 111,-75 182,-75zm163 93c-42,-41 -100,-67 -163,-67 -64,0 -122,26 -164,67 -41,42 -67,100 -67,164 0,63 26,121 67,163 42,41 100,67 164,67 63,0 121,-26 163,-67 41,-42 67,-100 67,-163 0,-64 -26,-122 -67,-164l0 0z"/>
   <path class="fil1" d="M229 293c0,-16 12,-28 28,-28 15,0 27,12 27,28 0,15 -12,27 -27,27 -16,0 -28,-12 -28,-27zm-104 -65l0 137c0,12 5,24 13,32 1,0 12,14 33,14l171 0c25,0 46,-21 46,-46l0 -137c0,-13 -5,-24 -13,-33 -12,-11 -23,-13 -38,-13l0 -27c0,-22 -9,-42 -24,-57 -50,-50 -137,-14 -137,57l0 27 -5 0c-25,0 -46,21 -46,46zm182 -51l-101 0 0 -22c0,-28 23,-51 51,-51 13,0 26,6 35,15 18,18 15,36 15,58z"/>
  </g>
 </g>
</svg>
