<?xml version="1.0" encoding="UTF-8"?>
<!DOCTYPE svg PUBLIC "-//W3C//DTD SVG 1.1//EN" "http://www.w3.org/Graphics/SVG/1.1/DTD/svg11.dtd">
<!-- Creator: CorelDRAW X7 -->
<svg xmlns="http://www.w3.org/2000/svg" xml:space="preserve" width="24.0298mm" height="24.0298mm" version="1.1" style="shape-rendering:geometricPrecision; text-rendering:geometricPrecision; image-rendering:optimizeQuality; fill-rule:evenodd; clip-rule:evenodd"
viewBox="0 0 2519 2519"
 xmlns:xlink="http://www.w3.org/1999/xlink">
 <defs>
  <style type="text/css">
   <![CDATA[
    .fil0 {fill:#BDBFC1}
    .fil1 {fill:#FEFEFF}
    .fil3 {fill:#FEFEFE;fill-rule:nonzero}
    .fil2 {fill:#BDBFC1;fill-rule:nonzero}
   ]]>
  </style>
 </defs>
 <g id="Capa_x0020_1">
  <metadata id="CorelCorpID_0Corel-Layer"/>
  <circle class="fil0" cx="1259" cy="1259" r="1259"/>
  <path class="fil1" d="M636 1810l1225 0c-2,-62 13,-191 -16,-236 -82,-126 -453,-154 -595,-154 -141,0 -522,31 -598,151 -30,47 -15,173 -16,239z"/>
  <path class="fil1" d="M1231 711c-145,18 -268,154 -246,321 19,146 154,272 322,248 144,-22 264,-152 244,-322 -18,-147 -153,-268 -320,-247z"/>
  <path class="fil2" d="M1853 831l-156 0 0 243 50 409 54 0 52 -408 0 -244zm-183 -52l209 0 26 0 0 26 0 270 0 1 0 3 -55 433 -3 23 -23 0 -100 0 -23 0 -3 -23 -54 -433 0 -2 0 -2 0 -270 0 -26 26 0zm21 1005l169 0 0 -164 -169 0 0 164zm195 52l-221 0 -26 0 0 -26 0 -217 0 -26 26 0 221 0 26 0 0 26 0 217 0 26 -26 0z"/>
  <path class="fil3" d="M1879 805l-209 0 0 270 54 434 100 0 55 -434 0 -270zm-214 1005l221 0 0 -217 -221 0 0 217z"/>
 </g>
</svg>
