<?xml version="1.0" encoding="UTF-8"?>
<!DOCTYPE svg PUBLIC "-//W3C//DTD SVG 1.1//EN" "http://www.w3.org/Graphics/SVG/1.1/DTD/svg11.dtd">
<!-- Creator: CorelDRAW X7 -->
<svg xmlns="http://www.w3.org/2000/svg" xml:space="preserve" width="24.0298mm" height="24.0298mm" version="1.1" style="shape-rendering:geometricPrecision; text-rendering:geometricPrecision; image-rendering:optimizeQuality; fill-rule:evenodd; clip-rule:evenodd"
viewBox="0 0 474 474"
 xmlns:xlink="http://www.w3.org/1999/xlink">
 <defs>
  <style type="text/css">
   <![CDATA[
    .fil0 {fill:#3EA52F}
    .fil1 {fill:#FEFEFF}
    .fil3 {fill:#FEFEFE;fill-rule:nonzero}
    .fil2 {fill:#3EA52F;fill-rule:nonzero}
   ]]>
  </style>
 </defs>
 <g id="Capa_x0020_1">
  <metadata id="CorelCorpID_0Corel-Layer"/>
  <circle class="fil0" cx="237" cy="237" r="237"/>
  <path class="fil1" d="M107 319l214 0c-1,-10 2,-33 -3,-41 -15,-22 -79,-27 -104,-27 -24,0 -91,6 -104,27 -5,8 -3,30 -3,41z"/>
  <path class="fil1" d="M211 128c-25,3 -47,27 -43,56 3,25 27,47 56,43 25,-4 46,-27 42,-56 -3,-26 -26,-47 -55,-43z"/>
  <path class="fil2" d="M202 258l44 44 99 -100 3 -3 4 3 19 19 3 4 -3 3 -112 113 -10 9 -3 4 -4 -4 -9 -9 -57 -57 -3 -3 3 -4 19 -19 4 -3 3 3zm40 54l-43 -43 -12 12 52 53 7 6 6 -6 108 -109 -12 -12 -99 99 -3 3 -4 -3z"/>
  <polygon class="fil3" points="199,262 246,308 348,206 367,225 255,337 246,347 236,337 180,281 "/>
 </g>
</svg>
